# xmcd
#
# Track frame offsets:
#	150
#	21145
#	40035
#
# Disc length: 789 seconds
#
# Revision: 0
# Processed by: cddbd v1.4PL0 Copyright (c) Steve Scherf et al.
# Submitted via: dBpowerAMP V4.0
#
DISCID=18031303
DTITLE=Lauryn Hill - Ex-Factor (Part 2)
DYEAR=1900
DGENRE=R&B
TTITLE0=Ex-Factor (Radio Edit)
TTITLE1=Ex-Factor (A Simple Breakdown)
TTITLE2=Lost Ones (Remix)
EXTD=
EXTT0=
EXTT1=
EXTT2=
PLAYORDER=
